<?xml version="1.0" standalone="no"?>
<!DOCTYPE svg PUBLIC "-//W3C//DTD SVG 20010904//EN"
 "http://www.w3.org/TR/2001/REC-SVG-20010904/DTD/svg10.dtd">
<svg version="1.0" xmlns="http://www.w3.org/2000/svg"
 width="272.000000pt" height="316.000000pt" viewBox="0 0 272.000000 316.000000"
 preserveAspectRatio="xMidYMid meet">
<metadata>
Created by potrace 1.16, written by Peter Selinger 2001-2019
</metadata>
<g transform="translate(0.000000,316.000000) scale(0.100000,-0.100000)"
fill="#000000" stroke="none">
<path d="M1165 3055 c-462 -72 -851 -418 -973 -866 -184 -671 236 -1357 917
-1498 138 -29 344 -29 482 0 438 90 792 418 913 844 178 627 -166 1273 -787
1476 -170 56 -375 72 -552 44z m354 -865 c48 -24 98 -83 111 -130 6 -19 10
-144 10 -276 0 -196 -3 -244 -14 -253 -10 -9 -106 -11 -358 -9 -329 3 -345 4
-383 25 -46 24 -75 54 -101 103 -17 31 -19 64 -22 274 -2 132 -1 250 3 263 l5
23 356 0 c333 0 357 -1 393 -20z m429 -322 c-3 -285 -5 -343 -17 -343 -8 0
-69 50 -137 110 l-124 110 0 122 0 122 123 110 c67 61 130 110 140 111 16 0
17 -21 15 -342z"/>
</g>
</svg>
